<?xml version="1.0" encoding="UTF-8"?><svg id="Layer_1" xmlns="http://www.w3.org/2000/svg" viewBox="0 0 491.75 163.93"><defs><style>.cls-1{fill:#231f20;}</style></defs><path class="cls-1" d="M65.76,161.35L15.03,87.36h-4.7v73.98H0V4.7H22.55c11.98,0,22.78,.94,33.11,7.99,12.21,8.46,16.21,21.37,16.21,33.58,0,15.5-6.81,31.47-26.3,38.05-8.22,2.82-15.74,3.05-19.26,3.05l51.2,73.98h-11.74ZM10.33,77.97h15.03c22.31,0,35.7-11.74,35.7-31.94,0-15.74-7.75-23.96-13.86-27.24-6.58-3.76-17.85-4.7-23.96-4.7H10.33v63.88Z"/><path class="cls-1" d="M261.39,83.37c0,45.09-35.46,80.56-81.26,80.56s-81.26-35.46-81.26-80.56S134.33,2.58,180.13,2.58s81.26,35.7,81.26,80.79Zm-10.8,0c0-40.16-30.06-71.4-70.46-71.4s-70.46,31.24-70.46,71.4,30.06,71.16,70.46,71.16,70.46-31.23,70.46-71.16Z"/><path class="cls-1" d="M305.52,4.7V151.95h43.68v9.4h-54.02V4.7h10.33Z"/><path class="cls-1" d="M459.58,109.91h-66.7l-20.9,51.43h-11.28L426.7,0l65.05,161.35h-11.27l-20.9-51.43Zm-3.76-9.39l-29.36-74.22-29.83,74.22h59.18Z"/></svg>